<svg xmlns="http://www.w3.org/2000/svg" width="192" height="192" viewBox="0 0 192 192">
  <defs>
    <radialGradient id="bg" cx="50%" cy="50%" r="60%">
      <stop offset="0%" stop-color="#161c30"/>
      <stop offset="100%" stop-color="#0d0f14"/>
    </radialGradient>
    <clipPath id="rr">
      <rect width="192" height="192" rx="42"/>
    </clipPath>
  </defs>

  <rect width="192" height="192" rx="42" fill="url(#bg)"/>

  <g clip-path="url(#rr)">
    <!-- Stars -->
    <circle cx="30"  cy="26"  r="1.2" fill="rgba(255,255,255,0.5)"/>
    <circle cx="162" cy="20"  r="1"   fill="rgba(255,255,255,0.4)"/>
    <circle cx="172" cy="75"  r="1"   fill="rgba(255,255,255,0.35)"/>
    <circle cx="20"  cy="128" r="1"   fill="rgba(255,255,255,0.3)"/>
    <circle cx="165" cy="158" r="1.2" fill="rgba(255,255,255,0.4)"/>
    <circle cx="112" cy="18"  r="0.9" fill="rgba(255,255,255,0.45)"/>

    <!-- HEART 1 — Blue -->
    <path d="M64 128
             C49 116 33 108 33 93
             C33 83 41 77 50 77
             C57 77 62 81 64 85
             C66 81 71 77 78 77
             C87 77 95 83 95 93
             C95 108 79 116 64 128 Z"
          fill="rgba(91,141,238,0.2)" stroke="#5b8dee" stroke-width="2.2" stroke-linejoin="round"/>
    <path d="M37 94 Q46 85 55 94 Q64 103 73 94 Q82 85 91 94"
          fill="none" stroke="#5b8dee" stroke-width="2" opacity="0.85" stroke-linecap="round"/>
    <path d="M39 104 Q48 95 57 104 Q66 113 75 104 Q84 95 91 103"
          fill="none" stroke="#5b8dee" stroke-width="1.3" opacity="0.35" stroke-linecap="round"/>

    <!-- HEART 2 — Pink -->
    <path d="M128 128
             C113 116 97 108 97 93
             C97 83 105 77 114 77
             C121 77 126 81 128 85
             C130 81 135 77 142 77
             C151 77 159 83 159 93
             C159 108 143 116 128 128 Z"
          fill="rgba(255,110,180,0.2)" stroke="#ff6eb4" stroke-width="2.2" stroke-linejoin="round"/>
    <path d="M101 94 Q110 85 119 94 Q128 103 137 94 Q146 85 155 94"
          fill="none" stroke="#ff6eb4" stroke-width="2" opacity="0.85" stroke-linecap="round"/>
    <path d="M103 104 Q112 95 121 104 Q130 113 139 104 Q148 95 155 103"
          fill="none" stroke="#ff6eb4" stroke-width="1.3" opacity="0.35" stroke-linecap="round"/>

    <!-- Golden dot -->
    <circle cx="96" cy="96" r="5.5" fill="#f5d842" opacity="0.95"/>
    <circle cx="96" cy="96" r="9"   fill="none" stroke="#f5d842" stroke-width="1" opacity="0.3"/>
  </g>

  <rect width="192" height="192" rx="42" fill="none" stroke="rgba(255,255,255,0.08)" stroke-width="1"/>
</svg>
